<svg width="600" height="600" viewBox="126.5 153.5 600 600" xmlns="http://www.w3.org/2000/svg">
  <path fill="#FFFFFF" fill-rule="evenodd" d="M 258.40 182.46 C 269.07 171.02 286.75 166.75 301.31 172.72 C 308.67 175.80 314.54 181.50 319.20 187.86 C 329.02 200.35 338.76 212.90 348.35 225.57 C 353.08 231.45 357.11 238.25 363.76 242.22 C 370.60 246.75 379.01 247.74 387.04 247.52 C 415.69 247.37 444.35 247.46 473.00 247.52 C 479.27 247.56 485.65 246.29 491.05 242.99 C 497.70 239.12 501.87 232.44 506.58 226.59 C 517.22 212.91 527.96 199.32 538.68 185.70 C 542.94 180.16 548.63 175.75 555.09 173.05 C 566.19 168.12 579.83 169.38 589.94 176.06 C 599.00 181.61 604.48 191.29 607.63 201.17 C 620.53 240.32 633.59 279.43 646.51 318.58 C 647.54 321.92 649.11 325.07 650.92 328.06 C 668.18 357.30 678.38 390.73 680.15 424.66 C 680.88 443.83 680.14 463.17 676.13 481.98 C 668.94 517.02 653.18 550.12 631.28 578.34 C 600.60 617.48 558.32 647.45 511.16 663.26 C 501.01 666.85 489.89 668.49 481.00 674.94 C 470.32 682.51 460.22 690.85 449.81 698.77 C 435.06 709.98 420.66 721.64 405.94 732.89 C 400.67 736.96 393.82 739.56 387.12 738.31 C 380.30 737.07 373.44 732.98 370.88 726.26 C 367.98 718.86 369.03 710.75 368.85 703.00 C 368.66 691.02 369.53 679.03 368.79 667.06 C 331.74 660.28 296.77 643.84 266.76 621.25 C 239.87 600.79 216.89 574.97 200.73 545.24 C 191.50 528.31 184.36 510.24 179.56 491.57 C 172.28 464.32 171.07 435.61 174.92 407.72 C 179.39 379.59 188.91 352.15 203.74 327.77 C 207.59 321.81 209.21 314.85 211.59 308.26 C 223.44 272.72 235.87 237.38 247.99 201.93 C 250.33 194.94 253.19 187.84 258.40 182.46 M 321.42 409.58 C 305.36 412.76 295.02 431.73 301.38 446.89 C 305.85 460.72 322.40 468.71 336.08 463.98 C 350.20 459.66 358.68 442.93 354.10 428.95 C 350.33 415.35 335.25 406.10 321.42 409.58 M 519.44 409.59 C 510.89 411.64 503.15 417.63 499.87 425.90 C 495.47 435.64 497.56 447.47 504.34 455.58 C 511.36 463.90 523.57 467.43 533.95 464.11 C 548.95 459.91 557.70 441.44 551.66 427.11 C 547.30 414.31 532.58 406.16 519.44 409.59 Z"/>
</svg>
